<mxfile host="app.diagrams.net" modified="2021-02-28T12:30:51.874Z" agent="5.0 (Windows NT 10.0; Win64; x64) AppleWebKit/537.36 (KHTML, like Gecko) Chrome/88.0.4324.190 Safari/537.36" etag="cOqXXZGaO-9_UckbeoaF" version="14.4.3" type="github">
  <diagram id="lyBLcEAoJddNBt-HmPqM" name="Page-1">
    <mxGraphModel dx="782" dy="475" grid="1" gridSize="10" guides="1" tooltips="1" connect="1" arrows="1" fold="1" page="1" pageScale="1" pageWidth="850" pageHeight="1100" math="0" shadow="0">
      <root>
        <mxCell id="0" />
        <mxCell id="1" parent="0" />
        <mxCell id="djk4c1LW3NYNnyElirIL-1" value="" style="rounded=0;whiteSpace=wrap;html=1;" vertex="1" parent="1">
          <mxGeometry x="190" y="10" width="320" height="460" as="geometry" />
        </mxCell>
        <mxCell id="djk4c1LW3NYNnyElirIL-9" style="edgeStyle=orthogonalEdgeStyle;rounded=0;orthogonalLoop=1;jettySize=auto;html=1;exitX=0.5;exitY=0.5;exitDx=0;exitDy=0;exitPerimeter=0;entryX=0;entryY=0.5;entryDx=0;entryDy=0;" edge="1" parent="1" source="djk4c1LW3NYNnyElirIL-2" target="djk4c1LW3NYNnyElirIL-8">
          <mxGeometry relative="1" as="geometry">
            <Array as="points">
              <mxPoint x="160" y="200" />
              <mxPoint x="160" y="360" />
            </Array>
          </mxGeometry>
        </mxCell>
        <mxCell id="djk4c1LW3NYNnyElirIL-10" style="edgeStyle=orthogonalEdgeStyle;rounded=0;orthogonalLoop=1;jettySize=auto;html=1;exitX=0.5;exitY=0.5;exitDx=0;exitDy=0;exitPerimeter=0;entryX=0;entryY=0.5;entryDx=0;entryDy=0;" edge="1" parent="1" source="djk4c1LW3NYNnyElirIL-2" target="djk4c1LW3NYNnyElirIL-7">
          <mxGeometry relative="1" as="geometry" />
        </mxCell>
        <mxCell id="djk4c1LW3NYNnyElirIL-13" style="edgeStyle=orthogonalEdgeStyle;rounded=0;orthogonalLoop=1;jettySize=auto;html=1;exitX=0.5;exitY=0.5;exitDx=0;exitDy=0;exitPerimeter=0;entryX=0;entryY=0.5;entryDx=0;entryDy=0;" edge="1" parent="1" source="djk4c1LW3NYNnyElirIL-2" target="djk4c1LW3NYNnyElirIL-3">
          <mxGeometry relative="1" as="geometry" />
        </mxCell>
        <mxCell id="djk4c1LW3NYNnyElirIL-2" value="Anime Viewer" style="shape=umlActor;verticalLabelPosition=bottom;verticalAlign=top;html=1;outlineConnect=0;" vertex="1" parent="1">
          <mxGeometry x="100" y="170" width="30" height="60" as="geometry" />
        </mxCell>
        <mxCell id="djk4c1LW3NYNnyElirIL-6" style="edgeStyle=orthogonalEdgeStyle;rounded=0;orthogonalLoop=1;jettySize=auto;html=1;exitX=1;exitY=0.5;exitDx=0;exitDy=0;entryX=0;entryY=0.5;entryDx=0;entryDy=0;" edge="1" parent="1" source="djk4c1LW3NYNnyElirIL-3" target="djk4c1LW3NYNnyElirIL-5">
          <mxGeometry relative="1" as="geometry" />
        </mxCell>
        <mxCell id="djk4c1LW3NYNnyElirIL-3" value="Get Anime&lt;br&gt;Reccs" style="ellipse;whiteSpace=wrap;html=1;" vertex="1" parent="1">
          <mxGeometry x="230" y="80" width="90" height="60" as="geometry" />
        </mxCell>
        <mxCell id="djk4c1LW3NYNnyElirIL-15" style="edgeStyle=orthogonalEdgeStyle;rounded=0;orthogonalLoop=1;jettySize=auto;html=1;exitX=0.5;exitY=0;exitDx=0;exitDy=0;entryX=0.5;entryY=1;entryDx=0;entryDy=0;" edge="1" parent="1" source="djk4c1LW3NYNnyElirIL-5" target="djk4c1LW3NYNnyElirIL-14">
          <mxGeometry relative="1" as="geometry" />
        </mxCell>
        <mxCell id="djk4c1LW3NYNnyElirIL-5" value="User&lt;br&gt;Account" style="ellipse;whiteSpace=wrap;html=1;" vertex="1" parent="1">
          <mxGeometry x="410" y="170" width="90" height="60" as="geometry" />
        </mxCell>
        <mxCell id="djk4c1LW3NYNnyElirIL-12" style="edgeStyle=orthogonalEdgeStyle;rounded=0;orthogonalLoop=1;jettySize=auto;html=1;exitX=1;exitY=0.5;exitDx=0;exitDy=0;entryX=0;entryY=0.5;entryDx=0;entryDy=0;" edge="1" parent="1" source="djk4c1LW3NYNnyElirIL-7" target="djk4c1LW3NYNnyElirIL-5">
          <mxGeometry relative="1" as="geometry" />
        </mxCell>
        <mxCell id="djk4c1LW3NYNnyElirIL-7" value="Anime with &lt;br&gt;Food Reccs" style="ellipse;whiteSpace=wrap;html=1;" vertex="1" parent="1">
          <mxGeometry x="227.5" y="230" width="95" height="70" as="geometry" />
        </mxCell>
        <mxCell id="djk4c1LW3NYNnyElirIL-11" style="edgeStyle=orthogonalEdgeStyle;rounded=0;orthogonalLoop=1;jettySize=auto;html=1;exitX=1;exitY=0.5;exitDx=0;exitDy=0;entryX=0;entryY=1;entryDx=0;entryDy=0;" edge="1" parent="1" source="djk4c1LW3NYNnyElirIL-8" target="djk4c1LW3NYNnyElirIL-5">
          <mxGeometry relative="1" as="geometry" />
        </mxCell>
        <mxCell id="djk4c1LW3NYNnyElirIL-8" value="Locate Nearby People&lt;br&gt;With Similar&lt;br&gt;Taste" style="ellipse;whiteSpace=wrap;html=1;" vertex="1" parent="1">
          <mxGeometry x="300" y="320" width="110" height="80" as="geometry" />
        </mxCell>
        <mxCell id="djk4c1LW3NYNnyElirIL-14" value="Manage Preferences" style="ellipse;whiteSpace=wrap;html=1;" vertex="1" parent="1">
          <mxGeometry x="365" y="30" width="95" height="60" as="geometry" />
        </mxCell>
      </root>
    </mxGraphModel>
  </diagram>
</mxfile>
